<svg width="141" height="46" viewBox="0 0 141 46" fill="none" xmlns="http://www.w3.org/2000/svg">
<path d="M115.496 45.156C109.281 45.156 104.226 40.0578 104.226 33.7907C104.225 33.0538 104.296 32.3186 104.436 31.5953L108.054 32.3098C107.96 32.7978 107.913 33.2937 107.913 33.7907C107.903 34.8015 108.091 35.8043 108.468 36.7411C108.844 37.6779 109.401 38.5302 110.106 39.2486C110.811 39.9671 111.651 40.5374 112.576 40.9266C113.501 41.3158 114.494 41.5162 115.496 41.5162C116.498 41.5162 117.491 41.3158 118.416 40.9266C119.341 40.5374 120.181 39.9671 120.886 39.2486C121.591 38.5302 122.148 37.6779 122.524 36.7411C122.901 35.8043 123.089 34.8015 123.079 33.7907H126.766C126.766 40.0578 121.711 45.156 115.496 45.156Z" fill="white"/>
<path d="M8.87077 13.5349C6.62763 13.534 4.46815 14.3936 2.83054 15.9394C1.19294 17.4852 0.199885 19.6013 0.0529075 21.8584H0V40.6854H3.68747V29.6556C4.81585 30.4793 6.12144 31.0221 7.4976 31.2398C8.87377 31.4575 10.2815 31.3439 11.6058 30.9083C12.9301 30.4726 14.1335 29.7273 15.1176 28.7332C16.1017 27.739 16.8386 26.5242 17.2682 25.188C17.6979 23.8519 17.808 22.4321 17.5896 21.0448C17.3712 19.6575 16.8305 18.342 16.0116 17.2057C15.1927 16.0693 14.1189 15.1444 12.8779 14.5065C11.6369 13.8685 10.2638 13.5356 8.87077 13.5349V13.5349ZM8.87077 27.6226C7.85465 27.6226 6.86134 27.3188 6.01647 26.7495C5.17159 26.1803 4.51309 25.3712 4.12424 24.4245C3.73539 23.4779 3.63364 22.4362 3.83188 21.4313C4.03011 20.4264 4.51943 19.5033 5.23793 18.7787C5.95644 18.0542 6.87187 17.5608 7.86847 17.3609C8.86507 17.161 9.89807 17.2636 10.8368 17.6557C11.7756 18.0478 12.578 18.7118 13.1425 19.5638C13.7071 20.4157 14.0084 21.4174 14.0084 22.442C14.0084 23.1223 13.8755 23.796 13.6173 24.4245C13.3591 25.0531 12.9807 25.6242 12.5036 26.1053C12.0265 26.5863 11.4602 26.9679 10.8368 27.2283C10.2135 27.4886 9.54545 27.6226 8.87077 27.6226V27.6226Z" fill="white"/>
<path d="M69.6161 30.6884L74.1389 30.5849L67.285 21.3125L74.021 14.5208L68.8289 14.4974L63.6609 19.7087V8.02582H59.9734V30.5849H63.6609V24.967L64.6501 23.9695L69.6161 30.6884Z" fill="white"/>
<path d="M5.78534 10.9844L7.94652 10.9351L4.67188 6.50463L8.05073 3.01665L5.5697 3.00534L2.94038 5.73833V0.155945H1.17841V10.9351H2.94038V8.25064L3.41253 7.77372L5.78534 10.9844Z" fill="white"/>
<path d="M23.1574 30.6369H19.2295V22.4436C19.232 20.1445 20.1389 17.9402 21.7511 16.3145C23.3634 14.6888 25.5493 13.7743 27.8293 13.7717H28.7327C31.0128 13.7743 33.1987 14.6888 34.8109 16.3145C36.4231 17.9402 37.33 20.1445 37.3326 22.4436V23.6165H33.4046V22.4436C33.4031 21.1946 32.9104 19.9972 32.0346 19.1141C31.1588 18.2309 29.9713 17.7341 28.7327 17.7326H27.8293C26.5907 17.7341 25.4033 18.2309 24.5274 19.1141C23.6516 19.9972 23.1589 21.1946 23.1574 22.4436V30.6369Z" fill="white"/>
<path d="M99.2426 30.6369H95.3147V22.4436C95.317 20.1444 96.2238 17.94 97.8361 16.3143C99.4483 14.6885 101.634 13.7741 103.914 13.7717H104.817C107.097 13.7741 109.283 14.6885 110.896 16.3143C112.508 17.94 113.415 20.1444 113.417 22.4436V23.6165H109.489V22.4436C109.488 21.1945 108.995 19.997 108.119 19.1138C107.243 18.2306 106.056 17.7339 104.817 17.7326H103.914C102.676 17.7339 101.488 18.2306 100.612 19.1138C99.7365 19.997 99.2439 21.1945 99.2426 22.4436V30.6369Z" fill="white"/>
<path d="M57.1029 22.3924C57.1027 20.4004 56.4381 18.4662 55.216 16.9011C53.9938 15.336 52.2852 14.2308 50.3648 13.7633C48.4444 13.2958 46.4239 13.4932 44.6282 14.3237C42.8326 15.1542 41.3661 16.5695 40.4646 18.3421C39.5631 20.1147 39.279 22.1415 39.658 24.0966C40.037 26.0517 41.0571 27.8214 42.5541 29.1212C44.0512 30.421 45.9383 31.1753 47.912 31.2628C49.8856 31.3503 51.8311 30.7659 53.4355 29.6036V30.6124H57.0139V23.6607C57.0734 23.2406 57.1032 22.8168 57.1029 22.3924V22.3924ZM48.2979 27.6224C47.2818 27.6224 46.2885 27.3186 45.4436 26.7493C44.5987 26.18 43.9402 25.3709 43.5514 24.4243C43.1625 23.4777 43.0608 22.436 43.259 21.4311C43.4572 20.4261 43.9465 19.503 44.6651 18.7785C45.3836 18.054 46.299 17.5606 47.2956 17.3607C48.2922 17.1608 49.3252 17.2634 50.264 17.6555C51.2027 18.0476 52.0051 18.7116 52.5697 19.5635C53.1342 20.4155 53.4355 21.4171 53.4355 22.4418C53.4353 23.8157 52.8939 25.1333 51.9305 26.1048C50.967 27.0763 49.6604 27.6222 48.2979 27.6224V27.6224Z" fill="white"/>
<path d="M16.8214 6.97511C16.8218 6.07498 16.5219 5.20087 15.97 4.4934C15.4181 3.78593 14.6462 3.28623 13.7786 3.07469C12.9109 2.86314 11.9979 2.95204 11.1864 3.3271C10.3749 3.70215 9.71215 4.34154 9.30467 5.14243C8.8972 5.94332 8.76873 6.85914 8.93993 7.74257C9.11113 8.62599 9.57205 9.42567 10.2485 10.013C10.925 10.6003 11.7778 10.941 12.6696 10.9804C13.5614 11.0199 14.4404 10.7556 15.1653 10.2303V10.687H16.7805V7.54257C16.8076 7.35464 16.8212 7.16501 16.8214 6.97511V6.97511ZM12.8454 9.33627C12.3865 9.33627 11.9379 9.19905 11.5564 8.94196C11.1749 8.68488 10.8775 8.31948 10.702 7.89197C10.5264 7.46447 10.4805 6.99407 10.5701 6.54026C10.6597 6.08645 10.8807 5.66963 11.2052 5.3425C11.5297 5.01537 11.9432 4.79263 12.3933 4.70246C12.8433 4.61229 13.3098 4.65873 13.7337 4.83591C14.1576 5.01309 14.5199 5.31306 14.7747 5.69787C15.0295 6.08267 15.1654 6.53504 15.1653 6.99775C15.1653 7.30491 15.1052 7.60907 14.9886 7.89285C14.872 8.17662 14.7012 8.43446 14.4857 8.65162C14.2703 8.86878 14.0145 9.04102 13.7331 9.15849C13.4516 9.27597 13.15 9.33638 12.8454 9.33627V9.33627Z" fill="white"/>
<path d="M84.3212 27.7859C84.3212 27.7859 80.7187 27.7859 79.6317 24.4361C79.6317 24.4361 79.2902 23.5817 79.2902 22.7281H93.0781C93.0781 22.6392 93.0781 22.5495 93.0781 22.4598C93.0752 20.2055 92.2168 18.0379 90.6792 16.4016C89.1415 14.7653 87.0412 13.7844 84.8091 13.6602C82.577 13.536 80.3824 14.2778 78.6755 15.7335C76.9686 17.1892 75.8789 19.2484 75.6299 21.4886C75.3809 23.7289 75.9916 25.9802 77.3366 27.7808C78.6816 29.5814 80.6589 30.7947 82.863 31.1717C85.067 31.5488 87.3305 31.061 89.1892 29.8086C91.0479 28.5561 92.3608 26.6338 92.8585 24.4361H89.0059C87.9245 27.7859 84.3212 27.7859 84.3212 27.7859ZM84.3212 16.8006C84.3212 16.8006 87.9285 16.8006 89.0115 20.1503H79.6325C80.7187 16.803 84.3212 16.803 84.3212 16.803V16.8006Z" fill="white"/>
<path d="M104.286 24.7668C105.55 24.7668 106.575 23.7332 106.575 22.4581C106.575 21.1831 105.55 20.1495 104.286 20.1495C103.021 20.1495 101.996 21.1831 101.996 22.4581C101.996 23.7332 103.021 24.7668 104.286 24.7668Z" fill="white"/>
<path d="M120.029 14.3235H116.342V33.4383H110.745C110.75 34.6674 111.234 35.8454 112.093 36.7176C112.952 37.5899 114.116 38.0865 115.335 38.1001C116.554 38.1137 117.729 37.6432 118.607 36.7903C119.485 35.9374 119.995 34.7705 120.026 33.5417L120.029 14.3235Z" fill="white"/>
<path d="M140.417 22.3924C140.417 20.4004 139.752 18.4662 138.53 16.9011C137.308 15.336 135.599 14.2308 133.679 13.7633C131.759 13.2958 129.738 13.4932 127.943 14.3237C126.147 15.1542 124.68 16.5695 123.779 18.3421C122.877 20.1147 122.593 22.1415 122.972 24.0966C123.351 26.0517 124.371 27.8214 125.868 29.1212C127.366 30.421 129.253 31.1753 131.226 31.2628C133.2 31.3503 135.145 30.7659 136.75 29.6036V30.6124H140.327V23.6607C140.387 23.2406 140.417 22.8168 140.417 22.3924V22.3924ZM131.612 27.6224C130.596 27.6224 129.603 27.3186 128.758 26.7493C127.913 26.18 127.255 25.3709 126.866 24.4243C126.477 23.4777 126.375 22.436 126.573 21.4311C126.772 20.4261 127.261 19.503 127.979 18.7785C128.698 18.054 129.613 17.5606 130.61 17.3607C131.607 17.1608 132.64 17.2634 133.578 17.6555C134.517 18.0476 135.319 18.7116 135.884 19.5635C136.448 20.4155 136.75 21.4171 136.75 22.4418C136.75 23.1223 136.617 23.7962 136.359 24.4249C136.1 25.0536 135.722 25.6248 135.244 26.1059C134.767 26.587 134.2 26.9685 133.577 27.2287C132.953 27.4889 132.285 27.6227 131.61 27.6224H131.612Z" fill="white"/>
<path d="M131.409 24.7668C132.674 24.7668 133.699 23.7332 133.699 22.4581C133.699 21.1831 132.674 20.1495 131.409 20.1495C130.145 20.1495 129.12 21.1831 129.12 22.4581C129.12 23.7332 130.145 24.7668 131.409 24.7668Z" fill="white"/>
<path d="M28.8248 3.24056H26.9177V0.155945H25.3025V3.24056H24.6091V4.87017H25.3025V10.687H26.9177V4.87017H28.8248V3.24056Z" fill="white"/>
<path d="M23.2271 4.39426H23.2199V2.77759C23.1397 2.77759 21.777 2.79618 20.5064 3.88824V2.96593H18.8911V10.6872H20.5072V6.61153C21.4178 4.46055 23.1509 4.39588 23.2271 4.39426Z" fill="white"/>
<path d="M35.5505 3.24146V8.03166C35.5322 8.29447 35.4496 8.54861 35.31 8.77129C35.0262 9.21426 34.4979 9.43817 33.7396 9.43817C32.9813 9.43817 32.457 9.21426 32.17 8.77129C32.0304 8.54861 31.9478 8.29447 31.9295 8.03166V3.24146H30.3263V8.03894C30.344 8.57412 30.4951 9.09618 30.7656 9.557C31.1664 10.24 32.0137 11.0548 33.7388 11.0548C36.5389 11.0548 37.1521 8.87799 37.1521 8.03894V3.24146H35.5505Z" fill="white"/>
</svg>
