<svg width="141" height="46" viewBox="0 0 141 46" fill="none" xmlns="http://www.w3.org/2000/svg">
<path d="M115.808 45.156C109.593 45.156 104.537 40.0578 104.537 33.7907C104.537 33.0538 104.607 32.3186 104.747 31.5953L108.365 32.3098C108.271 32.7978 108.224 33.2937 108.224 33.7907C108.214 34.8015 108.403 35.8043 108.779 36.7411C109.156 37.6779 109.712 38.5302 110.418 39.2486C111.123 39.9671 111.962 40.5374 112.887 40.9266C113.812 41.3158 114.805 41.5162 115.807 41.5162C116.81 41.5162 117.802 41.3158 118.727 40.9266C119.653 40.5374 120.492 39.9671 121.197 39.2486C121.902 38.5302 122.459 37.6779 122.836 36.7411C123.212 35.8043 123.401 34.8015 123.39 33.7907H127.078C127.078 40.0578 122.022 45.156 115.808 45.156Z" fill="#FFA369"/>
<path d="M9.18217 13.5349C6.93903 13.534 4.77955 14.3936 3.14194 15.9394C1.50434 17.4852 0.511286 19.6013 0.364309 21.8584H0.311401V40.6854H3.99887V29.6556C5.12725 30.4793 6.43284 31.0221 7.809 31.2398C9.18517 31.4575 10.5929 31.3439 11.9172 30.9083C13.2415 30.4726 14.4449 29.7273 15.429 28.7332C16.4131 27.739 17.15 26.5242 17.5796 25.188C18.0093 23.8519 18.1194 22.4321 17.901 21.0448C17.6826 19.6575 17.1419 18.342 16.323 17.2057C15.5041 16.0693 14.4303 15.1444 13.1893 14.5065C11.9483 13.8685 10.5752 13.5356 9.18217 13.5349V13.5349ZM9.18217 27.6226C8.16605 27.6226 7.17274 27.3188 6.32787 26.7495C5.48299 26.1803 4.82449 25.3712 4.43564 24.4245C4.04679 23.4779 3.94504 22.4362 4.14328 21.4313C4.34152 20.4264 4.83083 19.5033 5.54933 18.7787C6.26784 18.0542 7.18327 17.5608 8.17987 17.3609C9.17647 17.161 10.2095 17.2636 11.1482 17.6557C12.087 18.0478 12.8894 18.7118 13.4539 19.5638C14.0185 20.4157 14.3198 21.4174 14.3198 22.442C14.3198 23.1223 14.1869 23.796 13.9287 24.4245C13.6705 25.0531 13.2921 25.6242 12.815 26.1053C12.3379 26.5863 11.7716 26.9679 11.1482 27.2283C10.5249 27.4886 9.85685 27.6226 9.18217 27.6226V27.6226Z" fill="#4F8FD9"/>
<path d="M69.9275 30.6884L74.4503 30.5849L67.5964 21.3125L74.3324 14.5208L69.1403 14.4974L63.9723 19.7087V8.02582H60.2848V30.5849H63.9723V24.967L64.9615 23.9695L69.9275 30.6884Z" fill="#4F8FD9"/>
<path d="M6.09674 10.9844L8.25792 10.9351L4.98328 6.50463L8.36213 3.01665L5.8811 3.00534L3.25178 5.73833V0.155945H1.48981V10.9351H3.25178V8.25064L3.72393 7.77372L6.09674 10.9844Z" fill="#F5A76B"/>
<path d="M23.4688 30.6369H19.5409V22.4436C19.5434 20.1445 20.4503 17.9402 22.0625 16.3145C23.6748 14.6888 25.8607 13.7743 28.1407 13.7717H29.0441C31.3242 13.7743 33.5101 14.6888 35.1223 16.3145C36.7345 17.9402 37.6414 20.1445 37.644 22.4436V23.6165H33.716V22.4436C33.7145 21.1946 33.2218 19.9972 32.346 19.1141C31.4702 18.2309 30.2827 17.7341 29.0441 17.7326H28.1407C26.9021 17.7341 25.7147 18.2309 24.8388 19.1141C23.963 19.9972 23.4703 21.1946 23.4688 22.4436V30.6369Z" fill="#4F8FD9"/>
<path d="M99.5541 30.6369H95.6261V22.4436C95.6284 20.1444 96.5352 17.94 98.1475 16.3143C99.7598 14.6885 101.946 13.7741 104.226 13.7717H105.129C107.409 13.7741 109.595 14.6885 111.207 16.3143C112.819 17.94 113.726 20.1444 113.728 22.4436V23.6165H109.8V22.4436C109.799 21.1945 109.307 19.997 108.431 19.1138C107.555 18.2306 106.367 17.7339 105.129 17.7326H104.226C102.987 17.7339 101.8 18.2306 100.924 19.1138C100.048 19.997 99.5553 21.1945 99.5541 22.4436V30.6369Z" fill="#4F8FD9"/>
<path d="M57.4143 22.3924C57.4141 20.4004 56.7495 18.4662 55.5274 16.9011C54.3052 15.336 52.5966 14.2308 50.6762 13.7633C48.7558 13.2958 46.7353 13.4932 44.9396 14.3237C43.144 15.1542 41.6775 16.5695 40.776 18.3421C39.8745 20.1147 39.5904 22.1415 39.9694 24.0966C40.3484 26.0517 41.3685 27.8214 42.8655 29.1212C44.3626 30.421 46.2497 31.1753 48.2234 31.2628C50.197 31.3503 52.1425 30.7659 53.7469 29.6036V30.6124H57.3253V23.6607C57.3848 23.2406 57.4146 22.8168 57.4143 22.3924V22.3924ZM48.6093 27.6224C47.5932 27.6224 46.5999 27.3186 45.755 26.7493C44.9101 26.18 44.2516 25.3709 43.8628 24.4243C43.4739 23.4777 43.3722 22.436 43.5704 21.4311C43.7686 20.4261 44.2579 19.503 44.9765 18.7785C45.695 18.054 46.6104 17.5606 47.607 17.3607C48.6036 17.1608 49.6366 17.2634 50.5754 17.6555C51.5141 18.0476 52.3165 18.7116 52.8811 19.5635C53.4456 20.4155 53.7469 21.4171 53.7469 22.4418C53.7467 23.8157 53.2053 25.1333 52.2419 26.1048C51.2784 27.0763 49.9718 27.6222 48.6093 27.6224V27.6224Z" fill="#4F8FD9"/>
<path d="M17.1328 6.97511C17.1332 6.07498 16.8333 5.20087 16.2814 4.4934C15.7295 3.78593 14.9576 3.28623 14.09 3.07469C13.2223 2.86314 12.3093 2.95204 11.4978 3.3271C10.6863 3.70215 10.0235 4.34154 9.61608 5.14243C9.2086 5.94332 9.08013 6.85914 9.25133 7.74257C9.42253 8.62599 9.88345 9.42567 10.5599 10.013C11.2364 10.6003 12.0892 10.941 12.981 10.9804C13.8728 11.0199 14.7518 10.7556 15.4767 10.2303V10.687H17.0919V7.54257C17.119 7.35464 17.1326 7.16501 17.1328 6.97511V6.97511ZM13.1568 9.33627C12.6979 9.33627 12.2493 9.19905 11.8678 8.94196C11.4863 8.68488 11.1889 8.31948 11.0134 7.89197C10.8378 7.46447 10.7919 6.99407 10.8815 6.54026C10.9711 6.08645 11.1921 5.66963 11.5166 5.3425C11.8411 5.01537 12.2546 4.79263 12.7047 4.70246C13.1547 4.61229 13.6212 4.65873 14.0451 4.83591C14.469 5.01309 14.8313 5.31306 15.0861 5.69787C15.3409 6.08267 15.4768 6.53504 15.4767 6.99775C15.4767 7.30491 15.4166 7.60907 15.3 7.89285C15.1835 8.17662 15.0126 8.43446 14.7971 8.65162C14.5817 8.86878 14.3259 9.04102 14.0445 9.15849C13.763 9.27597 13.4614 9.33638 13.1568 9.33627V9.33627Z" fill="#F5A76B"/>
<path d="M84.6326 27.7859C84.6326 27.7859 81.0301 27.7859 79.9431 24.4361C79.9431 24.4361 79.6016 23.5817 79.6016 22.7281H93.3895C93.3895 22.6392 93.3895 22.5495 93.3895 22.4598C93.3866 20.2055 92.5282 18.0379 90.9906 16.4016C89.4529 14.7653 87.3526 13.7844 85.1205 13.6602C82.8884 13.536 80.6938 14.2778 78.9869 15.7335C77.28 17.1892 76.1903 19.2484 75.9413 21.4886C75.6923 23.7289 76.303 25.9802 77.648 27.7808C78.993 29.5814 80.9703 30.7947 83.1744 31.1717C85.3784 31.5488 87.6419 31.061 89.5006 29.8086C91.3593 28.5561 92.6722 26.6338 93.1699 24.4361H89.3173C88.2359 27.7859 84.6326 27.7859 84.6326 27.7859ZM84.6326 16.8006C84.6326 16.8006 88.2399 16.8006 89.3229 20.1503H79.9439C81.0301 16.803 84.6326 16.803 84.6326 16.803V16.8006Z" fill="#4F8FD9"/>
<path d="M104.597 24.7668C105.861 24.7668 106.886 23.7332 106.886 22.4581C106.886 21.1831 105.861 20.1495 104.597 20.1495C103.333 20.1495 102.308 21.1831 102.308 22.4581C102.308 23.7332 103.333 24.7668 104.597 24.7668Z" fill="#F5A76B"/>
<path d="M120.341 14.3235H116.653V33.4383H111.056C111.061 34.6674 111.545 35.8454 112.404 36.7176C113.263 37.5899 114.428 38.0865 115.647 38.1001C116.865 38.1137 118.041 37.6432 118.918 36.7903C119.796 35.9374 120.306 34.7705 120.338 33.5417L120.341 14.3235Z" fill="#4F8FD9"/>
<path d="M140.729 22.3924C140.728 20.4004 140.064 18.4662 138.842 16.9011C137.62 15.336 135.911 14.2308 133.991 13.7633C132.07 13.2958 130.05 13.4932 128.254 14.3237C126.458 15.1542 124.992 16.5695 124.09 18.3421C123.189 20.1147 122.905 22.1415 123.284 24.0966C123.663 26.0517 124.683 27.8214 126.18 29.1212C127.677 30.421 129.564 31.1753 131.538 31.2628C133.511 31.3503 135.457 30.7659 137.061 29.6036V30.6124H140.639V23.6607C140.699 23.2406 140.729 22.8168 140.729 22.3924V22.3924ZM131.924 27.6224C130.907 27.6224 129.914 27.3186 129.069 26.7493C128.224 26.18 127.566 25.3709 127.177 24.4243C126.788 23.4777 126.686 22.436 126.885 21.4311C127.083 20.4261 127.572 19.503 128.291 18.7785C129.009 18.054 129.925 17.5606 130.921 17.3607C131.918 17.1608 132.951 17.2634 133.89 17.6555C134.828 18.0476 135.631 18.7116 136.195 19.5635C136.76 20.4155 137.061 21.4171 137.061 22.4418C137.061 23.1223 136.928 23.7962 136.67 24.4249C136.412 25.0536 136.033 25.6248 135.556 26.1059C135.078 26.587 134.512 26.9685 133.888 27.2287C133.264 27.4889 132.596 27.6227 131.921 27.6224H131.924Z" fill="#4F8FD9"/>
<path d="M131.721 24.7668C132.985 24.7668 134.01 23.7332 134.01 22.4581C134.01 21.1831 132.985 20.1495 131.721 20.1495C130.456 20.1495 129.431 21.1831 129.431 22.4581C129.431 23.7332 130.456 24.7668 131.721 24.7668Z" fill="#F5A76B"/>
<path d="M29.1362 3.24056H27.2291V0.155945H25.6139V3.24056H24.9205V4.87017H25.6139V10.687H27.2291V4.87017H29.1362V3.24056Z" fill="#F5A76B"/>
<path d="M23.5385 4.39426H23.5313V2.77759C23.4511 2.77759 22.0884 2.79618 20.8178 3.88824V2.96593H19.2025V10.6872H20.8186V6.61153C21.7292 4.46055 23.4623 4.39588 23.5385 4.39426Z" fill="#F5A76B"/>
<path d="M35.8619 3.24146V8.03166C35.8436 8.29447 35.761 8.54861 35.6214 8.77129C35.3376 9.21426 34.8093 9.43817 34.051 9.43817C33.2927 9.43817 32.7684 9.21426 32.4814 8.77129C32.3418 8.54861 32.2592 8.29447 32.2409 8.03166V3.24146H30.6377V8.03894C30.6554 8.57412 30.8065 9.09618 31.077 9.557C31.4778 10.24 32.3251 11.0548 34.0502 11.0548C36.8503 11.0548 37.4635 8.87799 37.4635 8.03894V3.24146H35.8619Z" fill="#F5A76B"/>
</svg>
